#!OML:ASF I:\Actors\actors\Patient Classification 1\Patient 1\Session 1\Subject1.ASF
:FULLY-SPECIFIED
:DEGREES
1016
root -0.451196 17.6966 7.40537 16.9002 2.18926 -14.5731
lowerback 13.8838 2.42365 4.63904
upperback 9.51908 3.64107 -0.872906
thorax 2.66171 2.05995 -3.91846
lowerneck 6.94476 -15.6718 -6.85437
upperneck 19.1428 -22.6348 10.3933
head 6.77488 -10.9311 3.2197
rclavicle 9.54166e-015 -2.54444e-014
rhumerus 74.2978 29.9902 -25.1291
rradius 29.5446
rwrist 22.8704
rhand 28.7875 324.107
rfingers 7.12502
rthumb 52.6136 -55.6272
lclavicle 9.54166e-015 -2.54444e-014
lhumerus -9.16652 -50.5082 76.4808
lradius 91.9957
lwrist 27.9202
lhand -26.5823 1.72496
lfingers 7.12502
lthumb -0.0166239 31.7047
rfemur -21.7584 14.0703 30.4217
rtibia 11.5977
rfoot -9.81059 -18.0765
rtoes 0.0149241
lfemur -16.3961 -40.8776 12.709
ltibia -1.86095
lfoot -17.9238 52.5326
ltoes 7.35544
1017
root -0.455075 17.6937 7.41212 16.6921 3.06693 -14.628
lowerback 13.8844 2.45179 4.54908
upperback 9.48978 3.67436 -0.881187
thorax 2.62654 2.07315 -3.88111
lowerneck 6.67485 -15.694 -6.71995
upperneck 20.0059 -22.5991 9.66633
head 6.99963 -10.8957 2.94236
rclavicle -2.38542e-015 -1.11319e-014
rhumerus 74.7141 30.6847 -23.8197
rradius 30.1729
rwrist 21.2043
rhand 28.8283 323.091
rfingers 7.12502
rthumb 52.6505 -56.6198
lclavicle -2.38542e-015 -1.11319e-014
lhumerus -9.98785 -48.8816 76.658
lradius 91.8262
lwrist 27.1878
lhand -26.9476 1.94367
lfingers 7.12502
lthumb -0.369462 31.9231
rfemur -21.5941 13.7397 30.5908
rtibia 11.6497
rfoot -10.0864 -18.5392
rtoes 0.0948701
lfemur -16.7002 -40.8207 12.9963
ltibia -1.8684
lfoot -16.3264 51.9765
ltoes 5.41457
1018
root -0.45818 17.6911 7.41864 16.5201 3.95459 -14.6851
lowerback 13.8503 2.49316 4.46129
upperback 9.4832 3.7234 -0.904736
thorax 2.63721 2.09644 -3.85985
lowerneck 6.5082 -15.6086 -7.08433
upperneck 20.8241 -22.5459 9.59703
head 7.3281 -10.8586 2.93256
rclavicle -1.66979e-014 2.46493e-014
rhumerus 75.3495 31.2626 -22.1035
rradius 30.9802
rwrist 19.7165
rhand 29.5727 322.182
rfingers 7.12502
rthumb 53.3224 -57.1045
lclavicle -1.66979e-014 2.46493e-014
lhumerus -10.6191 -47.2711 76.6971
lradius 91.652
lwrist 26.356
lhand -27.3129 2.08401
lfingers 7.12502
lthumb -0.722315 32.0625
rfemur -21.4571 13.425 30.7419
rtibia 11.6782
rfoot -10.3877 -18.9748
rtoes 0.687589
lfemur -17.1024 -41.1382 13.4478
ltibia -1.69831
lfoot -17.9014 51.0843
ltoes 7.9651
1019
root -0.461416 17.6901 7.42644 16.359 4.7945 -14.7416
lowerback 13.8211 2.55294 4.35675
upperback 9.46595 3.79497 -0.951384
thorax 2.6366 2.13035 -3.85634
lowerneck 6.62047 -15.6171 -7.06348
upperneck 20.9283 -22.5174 9.39941
head 7.31646 -10.8534 2.88103
rclavicle -3.49861e-014 -2.70347e-014
rhumerus 76.0149 31.8174 -20.3611
rradius 31.8907
rwrist 18.8006
rhand 30.7267 322.179
rfingers 7.12502
rthumb 54.3591 -56.4131
lclavicle -3.49861e-014 -2.70347e-014
lhumerus -11.2262 -45.6296 76.7289
lradius 91.4886
lwrist 25.4866
lhand -26.9359 2.02965
lfingers 7.12502
lthumb -0.358198 32.0091
rfemur -21.3245 13.1237 30.898
rtibia 11.7129
rfoot -10.6497 -19.3897
rtoes 1.0748
lfemur -17.4679 -41.459 13.8855
ltibia -1.54819
lfoot -19.6608 50.1711
ltoes 11.0346
1020
root -0.463189 17.6896 7.43656 16.1785 5.61467 -14.8199
lowerback 13.8195 2.62508 4.34475
upperback 9.45337 3.89302 -0.97282
thorax 2.6346 2.18108 -3.88213
lowerneck 6.72999 -15.6594 -6.61434
upperneck 20.7066 -22.4207 8.8278
head 7.0968 -10.8174 2.68244
rclavicle -5.80451e-014 4.21423e-014
rhumerus 76.8583 32.3337 -18.2468
rradius 32.8895
rwrist 18.0779
rhand 31.9438 323.201
rfingers 7.12502
rthumb 55.4455 -54.61
lclavicle -5.80451e-014 4.21423e-014
lhumerus -11.849 -43.9603 76.9367
lradius 91.3971
lwrist 24.7835
lhand -26.3672 1.93325
lfingers 7.12502
lthumb 0.19112 31.9129
rfemur -21.1613 12.8798 31.0687
rtibia 11.7437
rfoot -10.9194 -19.8277
rtoes 1.62961
lfemur -17.7542 -41.2765 14.1102
ltibia -1.69235
lfoot -16.084 50.1455
ltoes 6.25961
1021
root -0.461919 17.6894 7.44751 15.9853 6.42181 -14.8951
lowerback 13.8531 2.71051 4.42253
upperback 9.45162 4.01885 -0.999645
thorax 2.63669 2.25049 -3.96822
lowerneck 6.83 -16.0858 -5.58313
upperneck 20.5694 -22.5872 6.97098
head 6.71662 -10.931 2.01627
rclavicle -5.56597e-015 5.56597e-015
rhumerus 77.7815 32.7405 -15.951
rradius 34.0418
rwrist 16.9523
rhand 33.0256 324.003
rfingers 7.12502
rthumb 56.4046 -53.0684
lclavicle -5.56597e-015 5.56597e-015
lhumerus -12.439 -42.3822 77.2102
lradius 91.3521
lwrist 24.1339
lhand -26.2066 1.60606
lfingers 7.12502
lthumb 0.346167 31.5855
rfemur -20.9629 12.6608 31.2138
rtibia 11.737
rfoot -11.2124 -20.2696
rtoes 2.53914
lfemur -18.0355 -41.2766 14.325
ltibia -1.82914
lfoot -12.4396 50.1435
ltoes 0.982742
1022
root -0.459147 17.6896 7.45873 15.8027 7.18812 -14.9827
lowerback 13.8919 2.78489 4.49211
upperback 9.44693 4.12964 -1.08235
thorax 2.636 2.31372 -4.10744
lowerneck 6.89469 -16.1215 -5.64256
upperneck 20.7527 -22.6247 6.89634
head 6.76818 -10.9514 1.99779
rclavicle -2.06736e-014 3.57812e-014
rhumerus 78.6599 33.0693 -14.1489
rradius 35.1025
rwrist 15.4675
rhand 34.105 324.147
rfingers 7.12502
rthumb 57.3548 -52.1397
lclavicle -2.06736e-014 3.57812e-014
lhumerus -13.0166 -40.8162 77.3554
lradius 91.3397
lwrist 23.3651
lhand -26.3955 1.17207
lfingers 7.12502
lthumb 0.163804 31.1518
rfemur -20.7867 12.3884 31.3775
rtibia 11.7521
rfoot -11.4491 -20.6495
rtoes 2.96057
lfemur -18.3174 -41.5336 14.6383
ltibia -1.8396
lfoot -11.87 49.8431
ltoes 0.0687367
1023
root -0.457313 17.6908 7.47001 15.6407 7.93061 -15.1217
lowerback 13.9314 2.85335 4.5733
upperback 9.42849 4.23403 -1.19793
thorax 2.62402 2.37476 -4.28778
lowerneck 6.95565 -16.0618 -5.64804
upperneck 20.7815 -22.6185 7.31101
head 6.81683 -10.9293 2.12386
rclavicle 1.90833e-014 4.21423e-014
rhumerus 79.4419 33.3344 -12.8557
rradius 36.032
rwrist 13.7307
rhand 35.5087 324.143
rfingers 7.12502
rthumb 58.5794 -51.0469
lclavicle 1.90833e-014 4.21423e-014
lhumerus -13.5063 -39.2558 77.4004
lradius 91.3209
lwrist 22.605
lhand -26.7023 1.22162
lfingers 7.12502
lthumb -0.132535 31.2013
rfemur -20.6629 12.1498 31.5943
rtibia 11.8085
rfoot -11.6571 -21.0127
rtoes 2.945
lfemur -18.6198 -41.5692 14.9931
ltibia -1.82031
lfoot -11.3458 49.3413
ltoes -0.603227
1024
root -0.455095 17.6926 7.48224 15.464 8.66225 -15.2478
lowerback 13.9887 2.94591 4.6884
upperback 9.41086 4.37426 -1.32386
thorax 2.61261 2.45575 -4.50282
lowerneck 6.89331 -15.8849 -5.82314
upperneck 20.9523 -22.4979 7.87032
head 6.95857 -10.8453 2.30649
rclavicle -1.27222e-014 -7.95139e-015
rhumerus 79.9097 33.5651 -12.0536
rradius 36.9332
rwrist 11.9628
rhand 37.0929 324.069
rfingers 7.12502
rthumb 59.9448 -49.7688
lclavicle -1.27222e-014 -7.95139e-015
lhumerus -13.8988 -37.8427 77.4391
lradius 91.2873
lwrist 22.017
lhand -26.8514 1.341
lfingers 7.12502
lthumb -0.276566 31.3206
rfemur -20.5001 11.9009 31.7978
rtibia 11.8325
rfoot -11.8978 -21.346
rtoes 3.12809
lfemur -18.8991 -41.5996 15.3022
ltibia -1.78175
lfoot -10.7221 48.8204
ltoes -1.31621
1025
root -0.45161 17.6945 7.49705 15.2593 9.37101 -15.3806
lowerback 14.0574 3.06369 4.82315
upperback 9.38739 4.55002 -1.43452
thorax 2.59504 2.5546 -4.71752
lowerneck 6.5997 -15.6749 -6.14779
upperneck 21.3435 -22.3582 8.43592
head 7.22668 -10.7441 2.48541
rclavicle 6.67916e-014 -1.82882e-014
rhumerus 80.2358 33.8078 -11.5466
rradius 37.685
rwrist 10.1411
rhand 38.4946 323.803
rfingers 7.12502
rthumb 61.136 -48.7263
lclavicle 6.67916e-014 -1.82882e-014
lhumerus -14.3341 -36.54 77.534
lradius 91.3333
lwrist 21.684
lhand -26.8966 1.23517
lfingers 7.12502
lthumb -0.320253 31.2147
rfemur -20.2609 11.6232 32.0225
rtibia 11.7971
rfoot -12.1072 -21.6514
rtoes 3.26404
lfemur -19.0851 -41.7444 15.5734
ltibia -1.79581
lfoot -10.0901 48.4295
ltoes -2.27345
